<mxfile host="app.diagrams.net" modified="2023-12-23T18:11:47.840Z" agent="Mozilla/5.0 (Windows NT 10.0; Win64; x64) AppleWebKit/537.36 (KHTML, like Gecko) Chrome/120.0.0.0 Safari/537.36" etag="5KSeP2i8ZUQEOP3Sn1KA" version="22.1.11" type="device">
  <diagram name="Sayfa -1" id="VpgcIcXI0W5jKxc2KA65">
    <mxGraphModel dx="1674" dy="746" grid="1" gridSize="10" guides="1" tooltips="1" connect="1" arrows="1" fold="1" page="1" pageScale="1" pageWidth="827" pageHeight="1169" math="0" shadow="0">
      <root>
        <mxCell id="0" />
        <mxCell id="1" parent="0" />
        <mxCell id="QeVhOelewG4lcPRpQI2h-14" style="edgeStyle=orthogonalEdgeStyle;rounded=0;orthogonalLoop=1;jettySize=auto;html=1;entryX=0.5;entryY=0;entryDx=0;entryDy=0;" edge="1" parent="1" source="QeVhOelewG4lcPRpQI2h-1" target="QeVhOelewG4lcPRpQI2h-7">
          <mxGeometry relative="1" as="geometry" />
        </mxCell>
        <mxCell id="QeVhOelewG4lcPRpQI2h-1" value="Giriş" style="ellipse;whiteSpace=wrap;html=1;" vertex="1" parent="1">
          <mxGeometry x="350" y="30" width="80" height="50" as="geometry" />
        </mxCell>
        <mxCell id="QeVhOelewG4lcPRpQI2h-27" style="edgeStyle=orthogonalEdgeStyle;rounded=0;orthogonalLoop=1;jettySize=auto;html=1;entryX=0.5;entryY=0;entryDx=0;entryDy=0;" edge="1" parent="1" source="QeVhOelewG4lcPRpQI2h-4" target="QeVhOelewG4lcPRpQI2h-17">
          <mxGeometry relative="1" as="geometry" />
        </mxCell>
        <mxCell id="QeVhOelewG4lcPRpQI2h-4" value="x, N;" style="shape=parallelogram;perimeter=parallelogramPerimeter;whiteSpace=wrap;html=1;fixedSize=1;" vertex="1" parent="1">
          <mxGeometry x="330" y="230" width="120" height="60" as="geometry" />
        </mxCell>
        <mxCell id="QeVhOelewG4lcPRpQI2h-23" style="edgeStyle=orthogonalEdgeStyle;rounded=0;orthogonalLoop=1;jettySize=auto;html=1;entryX=0.5;entryY=0;entryDx=0;entryDy=0;" edge="1" parent="1" source="QeVhOelewG4lcPRpQI2h-5" target="QeVhOelewG4lcPRpQI2h-9">
          <mxGeometry relative="1" as="geometry" />
        </mxCell>
        <mxCell id="QeVhOelewG4lcPRpQI2h-29" style="edgeStyle=orthogonalEdgeStyle;rounded=0;orthogonalLoop=1;jettySize=auto;html=1;exitX=1;exitY=0.5;exitDx=0;exitDy=0;entryX=0;entryY=0.5;entryDx=0;entryDy=0;" edge="1" parent="1" source="QeVhOelewG4lcPRpQI2h-5" target="QeVhOelewG4lcPRpQI2h-28">
          <mxGeometry relative="1" as="geometry" />
        </mxCell>
        <mxCell id="QeVhOelewG4lcPRpQI2h-5" value="x&amp;lt;=N" style="rhombus;whiteSpace=wrap;html=1;" vertex="1" parent="1">
          <mxGeometry x="350" y="440" width="80" height="80" as="geometry" />
        </mxCell>
        <mxCell id="QeVhOelewG4lcPRpQI2h-15" style="edgeStyle=orthogonalEdgeStyle;rounded=0;orthogonalLoop=1;jettySize=auto;html=1;entryX=0.5;entryY=0;entryDx=0;entryDy=0;" edge="1" parent="1" source="QeVhOelewG4lcPRpQI2h-7" target="QeVhOelewG4lcPRpQI2h-4">
          <mxGeometry relative="1" as="geometry" />
        </mxCell>
        <mxCell id="QeVhOelewG4lcPRpQI2h-7" value="dizi = [&amp;nbsp; ]" style="rounded=0;whiteSpace=wrap;html=1;" vertex="1" parent="1">
          <mxGeometry x="330" y="110" width="120" height="60" as="geometry" />
        </mxCell>
        <mxCell id="QeVhOelewG4lcPRpQI2h-38" style="edgeStyle=orthogonalEdgeStyle;rounded=0;orthogonalLoop=1;jettySize=auto;html=1;exitX=0;exitY=0.25;exitDx=0;exitDy=0;entryX=0;entryY=0.5;entryDx=0;entryDy=0;" edge="1" parent="1" source="QeVhOelewG4lcPRpQI2h-9" target="QeVhOelewG4lcPRpQI2h-5">
          <mxGeometry relative="1" as="geometry" />
        </mxCell>
        <mxCell id="QeVhOelewG4lcPRpQI2h-9" value="&amp;nbsp;x değişkenini dizi arrayine son eleman olarak ekle;&lt;br&gt;x++;" style="rounded=0;whiteSpace=wrap;html=1;" vertex="1" parent="1">
          <mxGeometry x="250" y="555" width="280" height="60" as="geometry" />
        </mxCell>
        <mxCell id="QeVhOelewG4lcPRpQI2h-18" style="edgeStyle=orthogonalEdgeStyle;rounded=0;orthogonalLoop=1;jettySize=auto;html=1;" edge="1" parent="1" source="QeVhOelewG4lcPRpQI2h-17" target="QeVhOelewG4lcPRpQI2h-1">
          <mxGeometry relative="1" as="geometry">
            <mxPoint x="210" y="50" as="targetPoint" />
            <Array as="points">
              <mxPoint x="211" y="380" />
              <mxPoint x="211" y="55" />
            </Array>
          </mxGeometry>
        </mxCell>
        <mxCell id="QeVhOelewG4lcPRpQI2h-40" style="edgeStyle=orthogonalEdgeStyle;rounded=0;orthogonalLoop=1;jettySize=auto;html=1;exitX=0.5;exitY=1;exitDx=0;exitDy=0;entryX=0.5;entryY=0;entryDx=0;entryDy=0;" edge="1" parent="1" source="QeVhOelewG4lcPRpQI2h-17" target="QeVhOelewG4lcPRpQI2h-5">
          <mxGeometry relative="1" as="geometry" />
        </mxCell>
        <mxCell id="QeVhOelewG4lcPRpQI2h-17" value="x &amp;gt; N veya x &amp;lt; 0" style="rhombus;whiteSpace=wrap;html=1;" vertex="1" parent="1">
          <mxGeometry x="300" y="340" width="180" height="80" as="geometry" />
        </mxCell>
        <mxCell id="QeVhOelewG4lcPRpQI2h-20" value="Bitiş" style="ellipse;whiteSpace=wrap;html=1;" vertex="1" parent="1">
          <mxGeometry x="660" y="560" width="80" height="50" as="geometry" />
        </mxCell>
        <mxCell id="QeVhOelewG4lcPRpQI2h-28" value="dizi" style="shape=document;whiteSpace=wrap;html=1;boundedLbl=1;" vertex="1" parent="1">
          <mxGeometry x="630" y="430" width="120" height="80" as="geometry" />
        </mxCell>
        <mxCell id="QeVhOelewG4lcPRpQI2h-30" style="edgeStyle=orthogonalEdgeStyle;rounded=0;orthogonalLoop=1;jettySize=auto;html=1;entryX=0.413;entryY=0;entryDx=0;entryDy=0;entryPerimeter=0;" edge="1" parent="1" source="QeVhOelewG4lcPRpQI2h-28" target="QeVhOelewG4lcPRpQI2h-20">
          <mxGeometry relative="1" as="geometry" />
        </mxCell>
      </root>
    </mxGraphModel>
  </diagram>
</mxfile>
